<mxfile host="app.diagrams.net" modified="2020-04-07T16:47:57.781Z" agent="5.0 (Macintosh; Intel Mac OS X 10_15_2) AppleWebKit/537.36 (KHTML, like Gecko) Chrome/80.0.3987.149 Safari/537.36" etag="mnU0cjJXrCvYwnuPtX4N" version="12.9.6" type="github">
  <diagram id="Lh6K2k7Quu3Ox1nJKVdc" name="Page-1">
    <mxGraphModel dx="1186" dy="559" grid="1" gridSize="10" guides="1" tooltips="1" connect="1" arrows="1" fold="1" page="1" pageScale="1" pageWidth="827" pageHeight="1169" math="0" shadow="0">
      <root>
        <mxCell id="0" />
        <mxCell id="1" parent="0" />
        <mxCell id="4giiRH2ZcKvrD8QyEyMM-1" value="&lt;font style=&quot;font-size: 24px&quot;&gt;&lt;b&gt;Warehouse scheme&lt;/b&gt;&lt;/font&gt;" style="text;html=1;" vertex="1" parent="1">
          <mxGeometry x="465" y="10" width="250" height="30" as="geometry" />
        </mxCell>
        <mxCell id="4giiRH2ZcKvrD8QyEyMM-2" value="" style="rounded=0;whiteSpace=wrap;html=1;" vertex="1" parent="1">
          <mxGeometry x="70" y="1780" width="1070" height="1220" as="geometry" />
        </mxCell>
        <mxCell id="4giiRH2ZcKvrD8QyEyMM-3" value="" style="rounded=0;whiteSpace=wrap;html=1;" vertex="1" parent="1">
          <mxGeometry y="70" width="1080" height="820" as="geometry" />
        </mxCell>
        <mxCell id="4giiRH2ZcKvrD8QyEyMM-5" value="" style="rounded=0;whiteSpace=wrap;html=1;direction=south;" vertex="1" parent="1">
          <mxGeometry x="100" y="280" width="25" height="120" as="geometry" />
        </mxCell>
        <mxCell id="4giiRH2ZcKvrD8QyEyMM-7" value="" style="rounded=0;whiteSpace=wrap;html=1;direction=south;" vertex="1" parent="1">
          <mxGeometry x="180" y="280" width="25" height="120" as="geometry" />
        </mxCell>
        <mxCell id="4giiRH2ZcKvrD8QyEyMM-8" value="" style="rounded=0;whiteSpace=wrap;html=1;direction=south;" vertex="1" parent="1">
          <mxGeometry x="220" y="280" width="25" height="120" as="geometry" />
        </mxCell>
        <mxCell id="4giiRH2ZcKvrD8QyEyMM-9" value="" style="rounded=0;whiteSpace=wrap;html=1;direction=south;" vertex="1" parent="1">
          <mxGeometry x="260" y="280" width="25" height="120" as="geometry" />
        </mxCell>
        <mxCell id="4giiRH2ZcKvrD8QyEyMM-10" value="" style="rounded=0;whiteSpace=wrap;html=1;direction=south;" vertex="1" parent="1">
          <mxGeometry x="300" y="280" width="25" height="120" as="geometry" />
        </mxCell>
        <mxCell id="4giiRH2ZcKvrD8QyEyMM-11" value="" style="rounded=0;whiteSpace=wrap;html=1;direction=south;" vertex="1" parent="1">
          <mxGeometry x="344" y="280" width="25" height="120" as="geometry" />
        </mxCell>
        <mxCell id="4giiRH2ZcKvrD8QyEyMM-12" value="" style="rounded=0;whiteSpace=wrap;html=1;direction=south;" vertex="1" parent="1">
          <mxGeometry x="385" y="280" width="25" height="120" as="geometry" />
        </mxCell>
        <mxCell id="4giiRH2ZcKvrD8QyEyMM-13" value="" style="rounded=0;whiteSpace=wrap;html=1;direction=south;" vertex="1" parent="1">
          <mxGeometry x="420" y="280" width="25" height="120" as="geometry" />
        </mxCell>
        <mxCell id="4giiRH2ZcKvrD8QyEyMM-6" value="" style="rounded=0;whiteSpace=wrap;html=1;direction=south;" vertex="1" parent="1">
          <mxGeometry x="140" y="280" width="25" height="120" as="geometry" />
        </mxCell>
        <mxCell id="4giiRH2ZcKvrD8QyEyMM-42" value="&lt;font style=&quot;font-size: 14px&quot;&gt;Зона приемки&lt;/font&gt;" style="rounded=0;whiteSpace=wrap;html=1;" vertex="1" parent="1">
          <mxGeometry x="100" y="610" width="450" height="60" as="geometry" />
        </mxCell>
        <mxCell id="4giiRH2ZcKvrD8QyEyMM-43" value="&lt;font style=&quot;font-size: 14px&quot;&gt;Зона &lt;font&gt;экспедиции&lt;/font&gt;&lt;/font&gt;" style="rounded=0;whiteSpace=wrap;html=1;" vertex="1" parent="1">
          <mxGeometry x="550" y="610" width="450" height="60" as="geometry" />
        </mxCell>
        <mxCell id="4giiRH2ZcKvrD8QyEyMM-44" value="&lt;font style=&quot;font-size: 14px&quot;&gt;Зона разгрузки&lt;/font&gt;" style="rounded=0;whiteSpace=wrap;html=1;" vertex="1" parent="1">
          <mxGeometry x="100" y="670" width="450" height="60" as="geometry" />
        </mxCell>
        <mxCell id="4giiRH2ZcKvrD8QyEyMM-45" value="&lt;font style=&quot;font-size: 14px&quot;&gt;Зона погрузки&lt;/font&gt;" style="rounded=0;whiteSpace=wrap;html=1;" vertex="1" parent="1">
          <mxGeometry x="550" y="670" width="450" height="60" as="geometry" />
        </mxCell>
        <mxCell id="4giiRH2ZcKvrD8QyEyMM-46" value="&lt;font style=&quot;font-size: 18px&quot;&gt;Площадка передвижения автомобилей&lt;/font&gt;" style="rounded=0;whiteSpace=wrap;html=1;" vertex="1" parent="1">
          <mxGeometry x="100" y="760" width="900" height="90" as="geometry" />
        </mxCell>
        <mxCell id="4giiRH2ZcKvrD8QyEyMM-47" value="&lt;font style=&quot;font-size: 24px&quot;&gt;Вспомогательные и подсобные помещения&lt;/font&gt;" style="rounded=0;whiteSpace=wrap;html=1;" vertex="1" parent="1">
          <mxGeometry x="40" y="110" width="1000" height="100" as="geometry" />
        </mxCell>
        <mxCell id="4giiRH2ZcKvrD8QyEyMM-48" value="Склад авто" style="text;html=1;strokeColor=none;fillColor=none;align=center;verticalAlign=middle;whiteSpace=wrap;rounded=0;rotation=90;" vertex="1" parent="1">
          <mxGeometry x="475" y="385" width="130" height="20" as="geometry" />
        </mxCell>
        <mxCell id="4giiRH2ZcKvrD8QyEyMM-49" value="Сек1" style="text;html=1;strokeColor=none;fillColor=none;align=center;verticalAlign=middle;whiteSpace=wrap;rounded=0;rotation=90;" vertex="1" parent="1">
          <mxGeometry x="92.5" y="320" width="40" height="20" as="geometry" />
        </mxCell>
        <mxCell id="4giiRH2ZcKvrD8QyEyMM-51" value="Сек2" style="text;html=1;rotation=90;" vertex="1" parent="1">
          <mxGeometry x="127.5" y="325" width="50" height="30" as="geometry" />
        </mxCell>
        <mxCell id="4giiRH2ZcKvrD8QyEyMM-52" value="Сек3" style="text;html=1;rotation=90;" vertex="1" parent="1">
          <mxGeometry x="170" y="325" width="50" height="30" as="geometry" />
        </mxCell>
        <mxCell id="4giiRH2ZcKvrD8QyEyMM-53" value="Сек4" style="text;html=1;rotation=90;" vertex="1" parent="1">
          <mxGeometry x="207.5" y="325" width="50" height="30" as="geometry" />
        </mxCell>
        <mxCell id="4giiRH2ZcKvrD8QyEyMM-55" value="Сек5" style="text;html=1;rotation=90;" vertex="1" parent="1">
          <mxGeometry x="250" y="325" width="50" height="30" as="geometry" />
        </mxCell>
        <mxCell id="4giiRH2ZcKvrD8QyEyMM-56" value="Сек6" style="text;html=1;rotation=90;" vertex="1" parent="1">
          <mxGeometry x="287.5" y="325" width="50" height="30" as="geometry" />
        </mxCell>
        <mxCell id="4giiRH2ZcKvrD8QyEyMM-57" value="Сек7" style="text;html=1;rotation=90;" vertex="1" parent="1">
          <mxGeometry x="331.5" y="325" width="50" height="30" as="geometry" />
        </mxCell>
        <mxCell id="4giiRH2ZcKvrD8QyEyMM-58" value="Сек8" style="text;html=1;rotation=90;" vertex="1" parent="1">
          <mxGeometry x="370" y="325" width="50" height="30" as="geometry" />
        </mxCell>
        <mxCell id="4giiRH2ZcKvrD8QyEyMM-59" value="Сек9" style="text;html=1;rotation=90;" vertex="1" parent="1">
          <mxGeometry x="407.5" y="325" width="50" height="30" as="geometry" />
        </mxCell>
        <mxCell id="4giiRH2ZcKvrD8QyEyMM-60" value="" style="rounded=0;whiteSpace=wrap;html=1;direction=south;" vertex="1" parent="1">
          <mxGeometry x="97.5" y="440" width="25" height="120" as="geometry" />
        </mxCell>
        <mxCell id="4giiRH2ZcKvrD8QyEyMM-61" value="" style="rounded=0;whiteSpace=wrap;html=1;direction=south;" vertex="1" parent="1">
          <mxGeometry x="177.5" y="440" width="25" height="120" as="geometry" />
        </mxCell>
        <mxCell id="4giiRH2ZcKvrD8QyEyMM-62" value="" style="rounded=0;whiteSpace=wrap;html=1;direction=south;" vertex="1" parent="1">
          <mxGeometry x="217.5" y="440" width="25" height="120" as="geometry" />
        </mxCell>
        <mxCell id="4giiRH2ZcKvrD8QyEyMM-63" value="" style="rounded=0;whiteSpace=wrap;html=1;direction=south;" vertex="1" parent="1">
          <mxGeometry x="257.5" y="440" width="25" height="120" as="geometry" />
        </mxCell>
        <mxCell id="4giiRH2ZcKvrD8QyEyMM-64" value="" style="rounded=0;whiteSpace=wrap;html=1;direction=south;" vertex="1" parent="1">
          <mxGeometry x="297.5" y="440" width="25" height="120" as="geometry" />
        </mxCell>
        <mxCell id="4giiRH2ZcKvrD8QyEyMM-65" value="" style="rounded=0;whiteSpace=wrap;html=1;direction=south;" vertex="1" parent="1">
          <mxGeometry x="341.5" y="440" width="25" height="120" as="geometry" />
        </mxCell>
        <mxCell id="4giiRH2ZcKvrD8QyEyMM-66" value="" style="rounded=0;whiteSpace=wrap;html=1;direction=south;" vertex="1" parent="1">
          <mxGeometry x="382.5" y="440" width="25" height="120" as="geometry" />
        </mxCell>
        <mxCell id="4giiRH2ZcKvrD8QyEyMM-67" value="" style="rounded=0;whiteSpace=wrap;html=1;direction=south;" vertex="1" parent="1">
          <mxGeometry x="417.5" y="440" width="25" height="120" as="geometry" />
        </mxCell>
        <mxCell id="4giiRH2ZcKvrD8QyEyMM-68" value="" style="rounded=0;whiteSpace=wrap;html=1;direction=south;" vertex="1" parent="1">
          <mxGeometry x="137.5" y="440" width="25" height="120" as="geometry" />
        </mxCell>
        <mxCell id="4giiRH2ZcKvrD8QyEyMM-69" value="Сек1" style="text;html=1;strokeColor=none;fillColor=none;align=center;verticalAlign=middle;whiteSpace=wrap;rounded=0;rotation=90;" vertex="1" parent="1">
          <mxGeometry x="90" y="480" width="40" height="20" as="geometry" />
        </mxCell>
        <mxCell id="4giiRH2ZcKvrD8QyEyMM-70" value="Сек2" style="text;html=1;rotation=90;" vertex="1" parent="1">
          <mxGeometry x="125" y="485" width="50" height="30" as="geometry" />
        </mxCell>
        <mxCell id="4giiRH2ZcKvrD8QyEyMM-71" value="Сек3" style="text;html=1;rotation=90;" vertex="1" parent="1">
          <mxGeometry x="167.5" y="485" width="50" height="30" as="geometry" />
        </mxCell>
        <mxCell id="4giiRH2ZcKvrD8QyEyMM-72" value="Сек4" style="text;html=1;rotation=90;" vertex="1" parent="1">
          <mxGeometry x="205" y="485" width="50" height="30" as="geometry" />
        </mxCell>
        <mxCell id="4giiRH2ZcKvrD8QyEyMM-73" value="Сек5" style="text;html=1;rotation=90;" vertex="1" parent="1">
          <mxGeometry x="247.5" y="485" width="50" height="30" as="geometry" />
        </mxCell>
        <mxCell id="4giiRH2ZcKvrD8QyEyMM-74" value="Сек6" style="text;html=1;rotation=90;" vertex="1" parent="1">
          <mxGeometry x="285" y="485" width="50" height="30" as="geometry" />
        </mxCell>
        <mxCell id="4giiRH2ZcKvrD8QyEyMM-75" value="Сек7" style="text;html=1;rotation=90;" vertex="1" parent="1">
          <mxGeometry x="329" y="485" width="50" height="30" as="geometry" />
        </mxCell>
        <mxCell id="4giiRH2ZcKvrD8QyEyMM-76" value="Сек8" style="text;html=1;rotation=90;" vertex="1" parent="1">
          <mxGeometry x="367.5" y="485" width="50" height="30" as="geometry" />
        </mxCell>
        <mxCell id="4giiRH2ZcKvrD8QyEyMM-77" value="Сек9" style="text;html=1;rotation=90;" vertex="1" parent="1">
          <mxGeometry x="405" y="485" width="50" height="30" as="geometry" />
        </mxCell>
        <mxCell id="4giiRH2ZcKvrD8QyEyMM-78" value="" style="rounded=0;whiteSpace=wrap;html=1;direction=south;" vertex="1" parent="1">
          <mxGeometry x="637.5" y="280" width="25" height="120" as="geometry" />
        </mxCell>
        <mxCell id="4giiRH2ZcKvrD8QyEyMM-79" value="" style="rounded=0;whiteSpace=wrap;html=1;direction=south;" vertex="1" parent="1">
          <mxGeometry x="717.5" y="280" width="25" height="120" as="geometry" />
        </mxCell>
        <mxCell id="4giiRH2ZcKvrD8QyEyMM-80" value="" style="rounded=0;whiteSpace=wrap;html=1;direction=south;" vertex="1" parent="1">
          <mxGeometry x="757.5" y="280" width="25" height="120" as="geometry" />
        </mxCell>
        <mxCell id="4giiRH2ZcKvrD8QyEyMM-81" value="" style="rounded=0;whiteSpace=wrap;html=1;direction=south;" vertex="1" parent="1">
          <mxGeometry x="797.5" y="280" width="25" height="120" as="geometry" />
        </mxCell>
        <mxCell id="4giiRH2ZcKvrD8QyEyMM-82" value="" style="rounded=0;whiteSpace=wrap;html=1;direction=south;" vertex="1" parent="1">
          <mxGeometry x="837.5" y="280" width="25" height="120" as="geometry" />
        </mxCell>
        <mxCell id="4giiRH2ZcKvrD8QyEyMM-83" value="" style="rounded=0;whiteSpace=wrap;html=1;direction=south;" vertex="1" parent="1">
          <mxGeometry x="881.5" y="280" width="25" height="120" as="geometry" />
        </mxCell>
        <mxCell id="4giiRH2ZcKvrD8QyEyMM-84" value="" style="rounded=0;whiteSpace=wrap;html=1;direction=south;" vertex="1" parent="1">
          <mxGeometry x="922.5" y="280" width="25" height="120" as="geometry" />
        </mxCell>
        <mxCell id="4giiRH2ZcKvrD8QyEyMM-85" value="" style="rounded=0;whiteSpace=wrap;html=1;direction=south;" vertex="1" parent="1">
          <mxGeometry x="957.5" y="280" width="25" height="120" as="geometry" />
        </mxCell>
        <mxCell id="4giiRH2ZcKvrD8QyEyMM-86" value="" style="rounded=0;whiteSpace=wrap;html=1;direction=south;" vertex="1" parent="1">
          <mxGeometry x="677.5" y="280" width="25" height="120" as="geometry" />
        </mxCell>
        <mxCell id="4giiRH2ZcKvrD8QyEyMM-87" value="Сек1" style="text;html=1;strokeColor=none;fillColor=none;align=center;verticalAlign=middle;whiteSpace=wrap;rounded=0;rotation=90;" vertex="1" parent="1">
          <mxGeometry x="630" y="320" width="40" height="20" as="geometry" />
        </mxCell>
        <mxCell id="4giiRH2ZcKvrD8QyEyMM-88" value="Сек2" style="text;html=1;rotation=90;" vertex="1" parent="1">
          <mxGeometry x="665" y="325" width="50" height="30" as="geometry" />
        </mxCell>
        <mxCell id="4giiRH2ZcKvrD8QyEyMM-89" value="Сек3" style="text;html=1;rotation=90;" vertex="1" parent="1">
          <mxGeometry x="707.5" y="325" width="50" height="30" as="geometry" />
        </mxCell>
        <mxCell id="4giiRH2ZcKvrD8QyEyMM-90" value="Сек4" style="text;html=1;rotation=90;" vertex="1" parent="1">
          <mxGeometry x="745" y="325" width="50" height="30" as="geometry" />
        </mxCell>
        <mxCell id="4giiRH2ZcKvrD8QyEyMM-91" value="Сек5" style="text;html=1;rotation=90;" vertex="1" parent="1">
          <mxGeometry x="787.5" y="325" width="50" height="30" as="geometry" />
        </mxCell>
        <mxCell id="4giiRH2ZcKvrD8QyEyMM-92" value="Сек6" style="text;html=1;rotation=90;" vertex="1" parent="1">
          <mxGeometry x="825" y="325" width="50" height="30" as="geometry" />
        </mxCell>
        <mxCell id="4giiRH2ZcKvrD8QyEyMM-93" value="Сек7" style="text;html=1;rotation=90;" vertex="1" parent="1">
          <mxGeometry x="869" y="325" width="50" height="30" as="geometry" />
        </mxCell>
        <mxCell id="4giiRH2ZcKvrD8QyEyMM-94" value="Сек8" style="text;html=1;rotation=90;" vertex="1" parent="1">
          <mxGeometry x="907.5" y="325" width="50" height="30" as="geometry" />
        </mxCell>
        <mxCell id="4giiRH2ZcKvrD8QyEyMM-95" value="Сек9" style="text;html=1;rotation=90;" vertex="1" parent="1">
          <mxGeometry x="945" y="325" width="50" height="30" as="geometry" />
        </mxCell>
        <mxCell id="4giiRH2ZcKvrD8QyEyMM-96" value="" style="rounded=0;whiteSpace=wrap;html=1;direction=south;" vertex="1" parent="1">
          <mxGeometry x="637.5" y="440" width="25" height="120" as="geometry" />
        </mxCell>
        <mxCell id="4giiRH2ZcKvrD8QyEyMM-97" value="" style="rounded=0;whiteSpace=wrap;html=1;direction=south;" vertex="1" parent="1">
          <mxGeometry x="717.5" y="440" width="25" height="120" as="geometry" />
        </mxCell>
        <mxCell id="4giiRH2ZcKvrD8QyEyMM-98" value="" style="rounded=0;whiteSpace=wrap;html=1;direction=south;" vertex="1" parent="1">
          <mxGeometry x="757.5" y="440" width="25" height="120" as="geometry" />
        </mxCell>
        <mxCell id="4giiRH2ZcKvrD8QyEyMM-99" value="" style="rounded=0;whiteSpace=wrap;html=1;direction=south;" vertex="1" parent="1">
          <mxGeometry x="797.5" y="440" width="25" height="120" as="geometry" />
        </mxCell>
        <mxCell id="4giiRH2ZcKvrD8QyEyMM-100" value="" style="rounded=0;whiteSpace=wrap;html=1;direction=south;" vertex="1" parent="1">
          <mxGeometry x="837.5" y="440" width="25" height="120" as="geometry" />
        </mxCell>
        <mxCell id="4giiRH2ZcKvrD8QyEyMM-101" value="" style="rounded=0;whiteSpace=wrap;html=1;direction=south;" vertex="1" parent="1">
          <mxGeometry x="881.5" y="440" width="25" height="120" as="geometry" />
        </mxCell>
        <mxCell id="4giiRH2ZcKvrD8QyEyMM-102" value="" style="rounded=0;whiteSpace=wrap;html=1;direction=south;" vertex="1" parent="1">
          <mxGeometry x="922.5" y="440" width="25" height="120" as="geometry" />
        </mxCell>
        <mxCell id="4giiRH2ZcKvrD8QyEyMM-103" value="" style="rounded=0;whiteSpace=wrap;html=1;direction=south;" vertex="1" parent="1">
          <mxGeometry x="957.5" y="440" width="25" height="120" as="geometry" />
        </mxCell>
        <mxCell id="4giiRH2ZcKvrD8QyEyMM-104" value="" style="rounded=0;whiteSpace=wrap;html=1;direction=south;" vertex="1" parent="1">
          <mxGeometry x="677.5" y="440" width="25" height="120" as="geometry" />
        </mxCell>
        <mxCell id="4giiRH2ZcKvrD8QyEyMM-105" value="Сек1" style="text;html=1;strokeColor=none;fillColor=none;align=center;verticalAlign=middle;whiteSpace=wrap;rounded=0;rotation=90;" vertex="1" parent="1">
          <mxGeometry x="630" y="480" width="40" height="20" as="geometry" />
        </mxCell>
        <mxCell id="4giiRH2ZcKvrD8QyEyMM-106" value="Сек2" style="text;html=1;rotation=90;" vertex="1" parent="1">
          <mxGeometry x="665" y="485" width="50" height="30" as="geometry" />
        </mxCell>
        <mxCell id="4giiRH2ZcKvrD8QyEyMM-107" value="Сек3" style="text;html=1;rotation=90;" vertex="1" parent="1">
          <mxGeometry x="707.5" y="485" width="50" height="30" as="geometry" />
        </mxCell>
        <mxCell id="4giiRH2ZcKvrD8QyEyMM-108" value="Сек4" style="text;html=1;rotation=90;" vertex="1" parent="1">
          <mxGeometry x="745" y="485" width="50" height="30" as="geometry" />
        </mxCell>
        <mxCell id="4giiRH2ZcKvrD8QyEyMM-109" value="Сек5" style="text;html=1;rotation=90;" vertex="1" parent="1">
          <mxGeometry x="787.5" y="485" width="50" height="30" as="geometry" />
        </mxCell>
        <mxCell id="4giiRH2ZcKvrD8QyEyMM-110" value="Сек6" style="text;html=1;rotation=90;" vertex="1" parent="1">
          <mxGeometry x="825" y="485" width="50" height="30" as="geometry" />
        </mxCell>
        <mxCell id="4giiRH2ZcKvrD8QyEyMM-111" value="Сек7" style="text;html=1;rotation=90;" vertex="1" parent="1">
          <mxGeometry x="869" y="485" width="50" height="30" as="geometry" />
        </mxCell>
        <mxCell id="4giiRH2ZcKvrD8QyEyMM-112" value="Сек8" style="text;html=1;rotation=90;" vertex="1" parent="1">
          <mxGeometry x="907.5" y="485" width="50" height="30" as="geometry" />
        </mxCell>
        <mxCell id="4giiRH2ZcKvrD8QyEyMM-113" value="Сек9" style="text;html=1;rotation=90;" vertex="1" parent="1">
          <mxGeometry x="945" y="485" width="50" height="30" as="geometry" />
        </mxCell>
      </root>
    </mxGraphModel>
  </diagram>
</mxfile>
